solid OpenSCAD_Model
  facet normal -0.31264007441091873 0.9379202220796126 0.15020599484196848
    outer loop
      vertex -51.830298508725946 0.4958267777600051 55
      vertex -46.5 2.272592949519799 55
      vertex -46.5 2.571806989610195 53.13163982418823
    endloop
  endfacet
  facet normal -0.31264007441091884 0.9379202220796126 0.15020599484196837
    outer loop
      vertex -51.830298508725946 0.4958267777600051 55
      vertex -46.5 2.571806989610195 53.13163982418823
      vertex -51.549765625276386 0.8885517762179093 53.13163984227971
    endloop
  endfacet
  facet normal 0.9889146896322385 7.172056958006177e-12 0.14848480268894054
    outer loop
      vertex -51.54999999701977 0.8884736523032188 53.13320076740921
      vertex -51.830298508725946 0.4958267777600051 55
      vertex -51.549765625276386 0.8885517762179093 53.13163984227971
    endloop
  endfacet
  facet normal 0.9889146896324599 3.326319473560457e-19 0.14848480268746525
    outer loop
      vertex -51.54999999701977 0.8884736523032188 53.13320076740921
      vertex -51.830298508725946 15.419863118019801 55
      vertex -51.830298508725946 0.4958267777600051 55
    endloop
  endfacet
  facet normal 0.9889146896324599 0 0.14848480268746525
    outer loop
      vertex -51.54999999701977 15.027216248214245 53.13320076740921
      vertex -51.830298508725946 15.419863118019801 55
      vertex -51.54999999701977 0.8884736523032188 53.13320076740921
    endloop
  endfacet
  facet normal -0.31264007441091884 -0.9379202220796128 0.15020599484196762
    outer loop
      vertex -46.5 13.643096946260005 55
      vertex -51.54976562971825 15.027138125780176 53.13163987186272
      vertex -46.5 13.343882910907269 53.13163985377123
    endloop
  endfacet
  facet normal -0.312640074410919 -0.9379202220796125 0.1502059948419684
    outer loop
      vertex -46.5 13.643096946260005 55
      vertex -51.830298508725946 15.419863118019801 55
      vertex -51.54976562971825 15.027138125780176 53.13163987186272
    endloop
  endfacet
  facet normal 0.988914689632144 -1.0228107906033539e-11 0.14848480268956912
    outer loop
      vertex -51.54999999701977 15.027216248214245 53.13320076740921
      vertex -51.54976562971825 15.027138125780176 53.13163987186272
      vertex -51.830298508725946 15.419863118019801 55
    endloop
  endfacet
  facet normal -0.3126400744109188 0.9379202220796125 -0.15020599484196834
    outer loop
      vertex -46.5 2.272592949519799 0
      vertex -51.549765625276386 0.8885517762179093 1.8683601577202893
      vertex -46.5 2.571806989610195 1.8683601758117732
    endloop
  endfacet
  facet normal -0.31264007441091873 0.9379202220796126 -0.15020599484196823
    outer loop
      vertex -46.5 2.272592949519799 0
      vertex -51.830298508725946 0.4958267777600051 0
      vertex -51.549765625276386 0.8885517762179093 1.8683601577202893
    endloop
  endfacet
  facet normal 0.9889146896322384 7.172097829146471e-12 -0.1484848026889405
    outer loop
      vertex -51.54999999701977 0.8884736523032188 1.8667992325907932
      vertex -51.549765625276386 0.8885517762179093 1.8683601577202893
      vertex -51.830298508725946 0.4958267777600051 0
    endloop
  endfacet
  facet normal 0.9889146896324599 3.695942371018228e-17 -0.14848480268746525
    outer loop
      vertex -51.830298508725946 0.4958267777600051 0
      vertex -51.54999999701977 15.027216248214245 1.8667992325907967
      vertex -51.54999999701977 0.8884736523032188 1.8667992325907932
    endloop
  endfacet
  facet normal 0.98891468963246 0 -0.14848480268746497
    outer loop
      vertex -51.830298508725946 0.4958267777600051 0
      vertex -51.830298508725946 15.419863118019801 0
      vertex -51.54999999701977 15.027216248214245 1.8667992325907967
    endloop
  endfacet
  facet normal -0.3126400744109191 -0.9379202220796126 -0.15020599484196734
    outer loop
      vertex -51.830298508725946 15.419863118019801 0
      vertex -46.5 13.643096946260005 0
      vertex -46.5 13.343882910907269 1.8683601462287704
    endloop
  endfacet
  facet normal -0.3126400744109186 -0.9379202220796125 -0.1502059948419685
    outer loop
      vertex -51.830298508725946 15.419863118019801 0
      vertex -46.5 13.343882910907269 1.8683601462287704
      vertex -51.54976562971825 15.027138125780176 1.868360128137283
    endloop
  endfacet
  facet normal 0.9889146896320788 -1.2338481849165501e-11 -0.14848480269000291
    outer loop
      vertex -51.54999999701977 15.027216248214245 1.8667992325907967
      vertex -51.830298508725946 15.419863118019801 0
      vertex -51.54976562971825 15.027138125780176 1.868360128137283
    endloop
  endfacet
  facet normal 0 0 -1
    outer loop
      vertex -46.5 -2.0921550542116165 0
      vertex -53.2820508107543 -2.0921550542116165 0
      vertex -46.5 2.272592949519799 0
    endloop
  endfacet
  facet normal 0 0 -1
    outer loop
      vertex -53.2820508107543 -2.0921550542116165 0
      vertex -51.830298508725946 0.4958267777600051 0
      vertex -46.5 2.272592949519799 0
    endloop
  endfacet
  facet normal 0 0 -1
    outer loop
      vertex -53.2820508107543 -2.0921550542116165 0
      vertex -54.54999999701977 6.103997357189655 0
      vertex -51.830298508725946 0.4958267777600051 0
    endloop
  endfacet
  facet normal 0 0 -1
    outer loop
      vertex -54.54999999701977 16.826165467500687 0
      vertex -51.830298508725946 15.419863118019801 0
      vertex -51.830298508725946 0.4958267777600051 0
    endloop
  endfacet
  facet normal 0 0 -1
    outer loop
      vertex -46.5 16.238943830132484 0
      vertex -46.5 13.643096946260005 0
      vertex -51.830298508725946 15.419863118019801 0
    endloop
  endfacet
  facet normal 0 0 -1
    outer loop
      vertex -54.54999999701977 6.103997357189655 0
      vertex -54.54999999701977 16.826165467500687 0
      vertex -51.830298508725946 0.4958267777600051 0
    endloop
  endfacet
  facet normal 1 0 0
    outer loop
      vertex -46.5 -2.0921550542116165 0
      vertex -46.5 2.272592949519799 0
      vertex -46.5 -2.0921550542116165 55
    endloop
  endfacet
  facet normal 1 0 0
    outer loop
      vertex -46.5 -2.0921550542116165 55
      vertex -46.5 2.272592949519799 0
      vertex -46.5 2.571806989610195 1.8683601758117732
    endloop
  endfacet
  facet normal -0.31622776685662907 0.9486832977705834 0
    outer loop
      vertex -46.5 2.571806989610195 53.13163982418823
      vertex -46.5 2.571806989610195 1.8683601758117732
      vertex -51.549765625276386 0.8885517762179093 1.8683601577202893
    endloop
  endfacet
  facet normal 0 -1 0
    outer loop
      vertex -46.5 -2.0921550542116165 0
      vertex -53.2820508107543 -2.0921550542116165 55
      vertex -53.2820508107543 -2.0921550542116165 0
    endloop
  endfacet
  facet normal -0.3162277668541918 0.9486832977713959 0
    outer loop
      vertex -51.54999999701977 0.8884736523032188 1.8667992325907932
      vertex -51.54999999701977 0.8884736523032188 53.13320076740921
      vertex -51.549765625276386 0.8885517762179093 1.8683601577202893
    endloop
  endfacet
  facet normal 1 0 0
    outer loop
      vertex -51.54999999701977 0.8884736523032188 53.13320076740921
      vertex -51.54999999701977 0.8884736523032188 1.8667992325907932
      vertex -51.54999999701977 15.027216248214245 1.8667992325907967
    endloop
  endfacet
  facet normal 1 0 0
    outer loop
      vertex -46.5 13.343882910907269 53.13163985377123
      vertex -46.5 13.343882910907269 1.8683601462287704
      vertex -46.5 13.643096946260005 0
    endloop
  endfacet
  facet normal 1 0 0
    outer loop
      vertex -46.5 16.238943830132484 0
      vertex -46.5 13.343882910907269 53.13163985377123
      vertex -46.5 13.643096946260005 0
    endloop
  endfacet
  facet normal -0.3162277668566291 -0.9486832977705834 0
    outer loop
      vertex -51.54976562971825 15.027138125780176 53.13163987186272
      vertex -51.54976562971825 15.027138125780176 1.868360128137283
      vertex -46.5 13.343882910907269 1.8683601462287704
    endloop
  endfacet
  facet normal -0.3162277668538032 -0.9486832977715254 -5.641779055731259e-23
    outer loop
      vertex -51.54999999701977 15.027216248214245 1.8667992325907967
      vertex -51.54976562971825 15.027138125780176 1.868360128137283
      vertex -51.54976562971825 15.027138125780176 53.13163987186272
    endloop
  endfacet
  facet normal -1 0 0
    outer loop
      vertex -54.54999999701977 6.103997357189655 0
      vertex -54.54999999701977 6.103997357189655 55
      vertex -54.54999999701977 16.826165467500687 0
    endloop
  endfacet
  facet normal 0 0 -1
    outer loop
      vertex -53.2820508107543 -2.0921550542116165 0
      vertex -73.2820508107543 32.54886110126972 0
      vertex -54.54999999701977 6.103997357189655 0
    endloop
  endfacet
  facet normal 0 0 -1
    outer loop
      vertex -46.5 16.238943830132484 0
      vertex -51.830298508725946 15.419863118019801 0
      vertex -51.54999999701977 18.238943830132484 0
    endloop
  endfacet
  facet normal 0 0 -1
    outer loop
      vertex -51.54999999701977 18.238943830132484 0
      vertex -51.830298508725946 15.419863118019801 0
      vertex -54.54999999701977 16.826165467500687 0
    endloop
  endfacet
  facet normal 0 0 -1
    outer loop
      vertex -51.54999999701977 18.238943830132484 0
      vertex -54.54999999701977 16.826165467500687 0
      vertex -66.38754668086767 26.60722965747118 0
    endloop
  endfacet
  facet normal 0.36821424537918535 0.929740969033761 0
    outer loop
      vertex -46.5 16.238943830132484 0
      vertex -51.54999999701977 18.238943830132484 0
      vertex -46.5 16.238943830132484 55
    endloop
  endfacet
  facet normal -0.636967423451695 -0.7708907195324829 0
    outer loop
      vertex -54.54999999701977 16.826165467500687 0
      vertex -54.54999999701977 16.826165467500687 55
      vertex -66.38754668086767 26.60722965747118 0
    endloop
  endfacet
  facet normal 0.6369674234996858 0.7708907194928294 0
    outer loop
      vertex -51.54999999701977 18.238943830132484 0
      vertex -70.68397459387779 34.04886110126972 0
      vertex -51.54999999701977 18.238943830132484 55
    endloop
  endfacet
  facet normal 0 0 -1
    outer loop
      vertex -54.54999999701977 6.103997357189655 0
      vertex -73.2820508107543 32.54886110126972 0
      vertex -66.38754668086767 26.60722965747118 0
    endloop
  endfacet
  facet normal 0 0 -1
    outer loop
      vertex -51.54999999701977 18.238943830132484 0
      vertex -66.38754668086767 26.60722965747118 0
      vertex -70.68397459387779 34.04886110126972 0
    endloop
  endfacet
  facet normal 0 0 -1
    outer loop
      vertex -66.38754668086767 26.60722965747118 0
      vertex -73.2820508107543 32.54886110126972 0
      vertex -70.68397459387779 34.04886110126972 0
    endloop
  endfacet
  facet normal 0.8660254038571784 0.49999999987401117 5.115723817366569e-18
    outer loop
      vertex -54.54999999701977 6.103997357189655 0
      vertex -66.38754668086767 26.60722965747118 0
      vertex -66.38754668086767 26.60722965747118 55
    endloop
  endfacet
  facet normal -0.8660254038100873 -0.4999999999555751 0
    outer loop
      vertex -53.2820508107543 -2.0921550542116165 0
      vertex -73.2820508107543 32.54886110126972 55
      vertex -73.2820508107543 32.54886110126972 0
    endloop
  endfacet
  facet normal -0.49999999920279614 0.8660254042447046 0
    outer loop
      vertex -70.68397459387779 34.04886110126972 0
      vertex -73.2820508107543 32.54886110126972 0
      vertex -70.68397459387779 34.04886110126972 55
    endloop
  endfacet
  facet normal 0 -1 0
    outer loop
      vertex -46.5 -2.0921550542116165 0
      vertex -46.5 -2.0921550542116165 55
      vertex -53.2820508107543 -2.0921550542116165 55
    endloop
  endfacet
  facet normal 1 0 0
    outer loop
      vertex -46.5 -2.0921550542116165 55
      vertex -46.5 2.571806989610195 1.8683601758117732
      vertex -46.5 2.272592949519799 55
    endloop
  endfacet
  facet normal -0.3162277668566291 0.9486832977705835 0
    outer loop
      vertex -51.549765625276386 0.8885517762179093 1.8683601577202893
      vertex -51.549765625276386 0.8885517762179093 53.13163984227971
      vertex -46.5 2.571806989610195 53.13163982418823
    endloop
  endfacet
  facet normal -0.3162277668541918 0.9486832977713959 -1.0237234817931487e-22
    outer loop
      vertex -51.54999999701977 0.8884736523032188 53.13320076740921
      vertex -51.549765625276386 0.8885517762179093 53.13163984227971
      vertex -51.549765625276386 0.8885517762179093 1.8683601577202893
    endloop
  endfacet
  facet normal 1 0 0
    outer loop
      vertex -46.5 2.571806989610195 1.8683601758117732
      vertex -46.5 2.571806989610195 53.13163982418823
      vertex -46.5 2.272592949519799 55
    endloop
  endfacet
  facet normal 1 0 0
    outer loop
      vertex -51.54999999701977 15.027216248214245 1.8667992325907967
      vertex -51.54999999701977 15.027216248214245 53.13320076740921
      vertex -51.54999999701977 0.8884736523032188 53.13320076740921
    endloop
  endfacet
  facet normal 1 0 0
    outer loop
      vertex -46.5 16.238943830132484 0
      vertex -46.5 13.643096946260005 55
      vertex -46.5 13.343882910907269 53.13163985377123
    endloop
  endfacet
  facet normal 1 0 0
    outer loop
      vertex -46.5 16.238943830132484 0
      vertex -46.5 16.238943830132484 55
      vertex -46.5 13.643096946260005 55
    endloop
  endfacet
  facet normal -0.31622776685662907 -0.9486832977705834 0
    outer loop
      vertex -46.5 13.343882910907269 1.8683601462287704
      vertex -46.5 13.343882910907269 53.13163985377123
      vertex -51.54976562971825 15.027138125780176 53.13163987186272
    endloop
  endfacet
  facet normal -0.31622776685380316 -0.9486832977715253 0
    outer loop
      vertex -51.54999999701977 15.027216248214245 1.8667992325907967
      vertex -51.54976562971825 15.027138125780176 53.13163987186272
      vertex -51.54999999701977 15.027216248214245 53.13320076740921
    endloop
  endfacet
  facet normal -1 0 0
    outer loop
      vertex -54.54999999701977 16.826165467500687 0
      vertex -54.54999999701977 6.103997357189655 55
      vertex -54.54999999701977 16.826165467500687 55
    endloop
  endfacet
  facet normal 0.8660254038571784 0.49999999987401117 0
    outer loop
      vertex -54.54999999701977 6.103997357189655 0
      vertex -66.38754668086767 26.60722965747118 55
      vertex -54.54999999701977 6.103997357189655 55
    endloop
  endfacet
  facet normal 0 0 1
    outer loop
      vertex -46.5 -2.0921550542116165 55
      vertex -46.5 2.272592949519799 55
      vertex -51.830298508725946 0.4958267777600051 55
    endloop
  endfacet
  facet normal 0 0 1
    outer loop
      vertex -46.5 -2.0921550542116165 55
      vertex -51.830298508725946 0.4958267777600051 55
      vertex -53.2820508107543 -2.0921550542116165 55
    endloop
  endfacet
  facet normal 0 0 1
    outer loop
      vertex -53.2820508107543 -2.0921550542116165 55
      vertex -51.830298508725946 0.4958267777600051 55
      vertex -54.54999999701977 6.103997357189655 55
    endloop
  endfacet
  facet normal 0 0 1
    outer loop
      vertex -54.54999999701977 6.103997357189655 55
      vertex -51.830298508725946 0.4958267777600051 55
      vertex -51.830298508725946 15.419863118019801 55
    endloop
  endfacet
  facet normal 0 0 1
    outer loop
      vertex -51.54999999701977 18.238943830132484 55
      vertex -51.830298508725946 15.419863118019801 55
      vertex -46.5 13.643096946260005 55
    endloop
  endfacet
  facet normal 0 0 1
    outer loop
      vertex -54.54999999701977 6.103997357189655 55
      vertex -51.830298508725946 15.419863118019801 55
      vertex -54.54999999701977 16.826165467500687 55
    endloop
  endfacet
  facet normal -0.8660254038100873 -0.4999999999555751 0
    outer loop
      vertex -53.2820508107543 -2.0921550542116165 0
      vertex -53.2820508107543 -2.0921550542116165 55
      vertex -73.2820508107543 32.54886110126972 55
    endloop
  endfacet
  facet normal 0 0 1
    outer loop
      vertex -53.2820508107543 -2.0921550542116165 55
      vertex -54.54999999701977 6.103997357189655 55
      vertex -73.2820508107543 32.54886110126972 55
    endloop
  endfacet
  facet normal 0.36821424537918535 0.929740969033761 0
    outer loop
      vertex -51.54999999701977 18.238943830132484 0
      vertex -51.54999999701977 18.238943830132484 55
      vertex -46.5 16.238943830132484 55
    endloop
  endfacet
  facet normal 0 0 1
    outer loop
      vertex -46.5 16.238943830132484 55
      vertex -51.54999999701977 18.238943830132484 55
      vertex -46.5 13.643096946260005 55
    endloop
  endfacet
  facet normal 0 0 1
    outer loop
      vertex -51.54999999701977 18.238943830132484 55
      vertex -54.54999999701977 16.826165467500687 55
      vertex -51.830298508725946 15.419863118019801 55
    endloop
  endfacet
  facet normal 0 0 1
    outer loop
      vertex -51.54999999701977 18.238943830132484 55
      vertex -66.38754668086767 26.60722965747118 55
      vertex -54.54999999701977 16.826165467500687 55
    endloop
  endfacet
  facet normal -0.636967423451695 -0.7708907195324829 0
    outer loop
      vertex -66.38754668086767 26.60722965747118 0
      vertex -54.54999999701977 16.826165467500687 55
      vertex -66.38754668086767 26.60722965747118 55
    endloop
  endfacet
  facet normal 0.6369674234996858 0.7708907194928294 0
    outer loop
      vertex -70.68397459387779 34.04886110126972 0
      vertex -70.68397459387779 34.04886110126972 55
      vertex -51.54999999701977 18.238943830132484 55
    endloop
  endfacet
  facet normal -0.49999999920279614 0.8660254042447046 0
    outer loop
      vertex -73.2820508107543 32.54886110126972 0
      vertex -73.2820508107543 32.54886110126972 55
      vertex -70.68397459387779 34.04886110126972 55
    endloop
  endfacet
  facet normal 0 0 1
    outer loop
      vertex -54.54999999701977 6.103997357189655 55
      vertex -66.38754668086767 26.60722965747118 55
      vertex -73.2820508107543 32.54886110126972 55
    endloop
  endfacet
  facet normal 0 0 1
    outer loop
      vertex -51.54999999701977 18.238943830132484 55
      vertex -70.68397459387779 34.04886110126972 55
      vertex -66.38754668086767 26.60722965747118 55
    endloop
  endfacet
  facet normal 0 0 1
    outer loop
      vertex -66.38754668086767 26.60722965747118 55
      vertex -70.68397459387779 34.04886110126972 55
      vertex -73.2820508107543 32.54886110126972 55
    endloop
  endfacet
endsolid OpenSCAD_Model
