solid OpenSCAD_Model
  facet normal -0.9240312761000421 -0.35539664566553775 0.14092347227701943
    outer loop
      vertex 27.072801493108273 -10.201375856995583 53.1405046840485
      vertex 27.071687578460118 -10.201375856995583 53.13320077677763
      vertex 27.464199161462822 -10.481674367295104 55
    endloop
  endfacet
  facet normal -0.9240312761000938 -0.3553966456653902 0.1409234722770526
    outer loop
      vertex 27.072801493108273 -10.201375856995583 53.1405046840485
      vertex 27.464199161462822 -10.481674367295104 55
      vertex 25.13049379736185 -5.151375859975815 53.140504690232405
    endloop
  endfacet
  facet normal -0.9240312761000938 -0.35539664566539025 0.14092347227705251
    outer loop
      vertex 27.464199161462822 -10.481674367295104 55
      vertex 25.414084345120493 -5.151375859975815 55
      vertex 25.13049379736185 -5.151375859975815 53.140504690232405
    endloop
  endfacet
  facet normal 0 0.9889146896324595 0.14848480268746797
    outer loop
      vertex 12.53580083853718 -10.481674367295104 55
      vertex 27.464199161462822 -10.481674367295104 55
      vertex 27.071687578460118 -10.201375856995583 53.13320077677763
    endloop
  endfacet
  facet normal 0 0.9889146896324595 0.14848480268746797
    outer loop
      vertex 27.071687578460118 -10.201375856995583 53.13320077677763
      vertex 12.92831242153988 -10.201375856995583 53.13320077677763
      vertex 12.53580083853718 -10.481674367295104 55
    endloop
  endfacet
  facet normal 0.9240312761001477 -0.3553966456652373 0.140923472277085
    outer loop
      vertex 12.927198506891727 -10.201375856995583 53.14050468404849
      vertex 12.53580083853718 -10.481674367295104 55
      vertex 12.92831242153988 -10.201375856995583 53.13320077677763
    endloop
  endfacet
  facet normal 0.9240312761000941 -0.35539664566539036 0.14092347227705065
    outer loop
      vertex 12.927198506891727 -10.201375856995583 53.14050468404849
      vertex 14.585915654879509 -5.151375859975815 55
      vertex 12.53580083853718 -10.481674367295104 55
    endloop
  endfacet
  facet normal 0.9240312761000937 -0.35539664566539064 0.14092347227705176
    outer loop
      vertex 14.585915654879509 -5.151375859975815 55
      vertex 12.927198506891727 -10.201375856995583 53.14050468404849
      vertex 14.869506195187569 -5.151375859975815 53.14050473908566
    endloop
  endfacet
  facet normal -0.9240312761000421 -0.35539664566553775 -0.14092347227701943
    outer loop
      vertex 27.072801493108273 -10.201375856995583 1.8594953159514986
      vertex 27.464199161462822 -10.481674367295104 0
      vertex 27.071687578460118 -10.201375856995583 1.8667992232223725
    endloop
  endfacet
  facet normal -0.9240312761000938 -0.35539664566539025 -0.14092347227705254
    outer loop
      vertex 25.414084345120493 -5.151375859975815 0
      vertex 27.464199161462822 -10.481674367295104 0
      vertex 27.072801493108273 -10.201375856995583 1.8594953159514986
    endloop
  endfacet
  facet normal -0.924031276100094 -0.3553966456653902 -0.1409234722770522
    outer loop
      vertex 25.414084345120493 -5.151375859975815 0
      vertex 27.072801493108273 -10.201375856995583 1.8594953159514986
      vertex 25.13049379736185 -5.151375859975815 1.859495309767599
    endloop
  endfacet
  facet normal -1.342169143993843e-18 0.9889146896324595 -0.14848480268746797
    outer loop
      vertex 27.464199161462822 -10.481674367295104 0
      vertex 12.92831242153988 -10.201375856995583 1.8667992232223725
      vertex 27.071687578460118 -10.201375856995583 1.8667992232223725
    endloop
  endfacet
  facet normal 0 0.9889146896324595 -0.14848480268746797
    outer loop
      vertex 27.464199161462822 -10.481674367295104 0
      vertex 12.53580083853718 -10.481674367295104 0
      vertex 12.92831242153988 -10.201375856995583 1.8667992232223725
    endloop
  endfacet
  facet normal 0.9240312761001478 -0.3553966456652373 -0.14092347227708502
    outer loop
      vertex 12.927198506891727 -10.201375856995583 1.8594953159515129
      vertex 12.92831242153988 -10.201375856995583 1.8667992232223725
      vertex 12.53580083853718 -10.481674367295104 0
    endloop
  endfacet
  facet normal 0.9240312761000938 -0.3553966456653906 -0.14092347227705054
    outer loop
      vertex 12.53580083853718 -10.481674367295104 0
      vertex 14.869506195187569 -5.151375859975815 1.859495260914347
      vertex 12.927198506891727 -10.201375856995583 1.8594953159515129
    endloop
  endfacet
  facet normal 0.9240312761000938 -0.35539664566539025 -0.14092347227705154
    outer loop
      vertex 12.53580083853718 -10.481674367295104 0
      vertex 14.585915654879509 -5.151375859975815 0
      vertex 14.869506195187569 -5.151375859975815 1.859495260914347
    endloop
  endfacet
  facet normal 0.500000000052518 -0.8660254037541173 0
    outer loop
      vertex 3.548094719648361 -30.52702020853758 0
      vertex 47.5 -5.151375859975815 0
      vertex 3.548094719648361 -30.52702020853758 55
    endloop
  endfacet
  facet normal 0 0 -1
    outer loop
      vertex 3.548094719648361 -30.52702020853758 0
      vertex 27.464199161462822 -10.481674367295104 0
      vertex 47.5 -5.151375859975815 0
    endloop
  endfacet
  facet normal 0 0 -1
    outer loop
      vertex 47.5 -5.151375859975815 0
      vertex 27.464199161462822 -10.481674367295104 0
      vertex 25.414084345120493 -5.151375859975815 0
    endloop
  endfacet
  facet normal 0 1 0
    outer loop
      vertex 47.5 -5.151375859975815 0
      vertex 25.414084345120493 -5.151375859975815 0
      vertex 25.13049379736185 -5.151375859975815 1.859495309767599
    endloop
  endfacet
  facet normal 0 1 0
    outer loop
      vertex 47.5 -5.151375859975815 0
      vertex 25.13049379736185 -5.151375859975815 1.859495309767599
      vertex 47.5 -5.151375859975815 55
    endloop
  endfacet
  facet normal 0 1 0
    outer loop
      vertex 27.072801493108273 -10.201375856995583 1.8594953159514986
      vertex 27.071687578460118 -10.201375856995583 1.8667992232223725
      vertex 27.071687578460118 -10.201375856995583 53.13320077677763
    endloop
  endfacet
  facet normal -0.9333456059191372 -0.35897908004706697 0
    outer loop
      vertex 25.13049379736185 -5.151375859975815 53.140504690232405
      vertex 25.13049379736185 -5.151375859975815 1.859495309767599
      vertex 27.072801493108273 -10.201375856995583 1.8594953159514986
    endloop
  endfacet
  facet normal 0 0 -1
    outer loop
      vertex 3.548094719648361 -30.52702020853758 0
      vertex 12.53580083853718 -10.481674367295104 0
      vertex 27.464199161462822 -10.481674367295104 0
    endloop
  endfacet
  facet normal 0 0 -1
    outer loop
      vertex 3.548094719648361 -30.52702020853758 0
      vertex 3.548094719648361 -5.151375859975815 0
      vertex 12.53580083853718 -10.481674367295104 0
    endloop
  endfacet
  facet normal 0 0 -1
    outer loop
      vertex 3.548094719648361 -5.151375859975815 0
      vertex 14.585915654879509 -5.151375859975815 0
      vertex 12.53580083853718 -10.481674367295104 0
    endloop
  endfacet
  facet normal 0 1 0
    outer loop
      vertex 3.548094719648361 -5.151375859975815 0
      vertex 14.869506195187569 -5.151375859975815 1.859495260914347
      vertex 14.585915654879509 -5.151375859975815 0
    endloop
  endfacet
  facet normal -1 0 0
    outer loop
      vertex 3.548094719648361 -30.52702020853758 0
      vertex 3.548094719648361 -5.151375859975815 55
      vertex 3.548094719648361 -5.151375859975815 0
    endloop
  endfacet
  facet normal 0 1 0
    outer loop
      vertex 27.071687578460118 -10.201375856995583 53.13320077677763
      vertex 27.071687578460118 -10.201375856995583 1.8667992232223725
      vertex 12.92831242153988 -10.201375856995583 1.8667992232223725
    endloop
  endfacet
  facet normal 0 1 0
    outer loop
      vertex 12.927198506891727 -10.201375856995583 1.8594953159515129
      vertex 12.927198506891727 -10.201375856995583 53.14050468404849
      vertex 12.92831242153988 -10.201375856995583 1.8667992232223725
    endloop
  endfacet
  facet normal 0.933345606380511 -0.35897907884749536 0
    outer loop
      vertex 12.927198506891727 -10.201375856995583 53.14050468404849
      vertex 12.927198506891727 -10.201375856995583 1.8594953159515129
      vertex 14.869506195187569 -5.151375859975815 1.859495260914347
    endloop
  endfacet
  facet normal 0 1 0
    outer loop
      vertex 3.548094719648361 -5.151375859975815 0
      vertex 14.869506195187569 -5.151375859975815 53.14050473908566
      vertex 14.869506195187569 -5.151375859975815 1.859495260914347
    endloop
  endfacet
  facet normal -1 0 0
    outer loop
      vertex 3.548094719648361 -30.52702020853758 0
      vertex 3.548094719648361 -30.52702020853758 55
      vertex 3.548094719648361 -5.151375859975815 55
    endloop
  endfacet
  facet normal 0.500000000052518 -0.8660254037541173 0
    outer loop
      vertex 47.5 -5.151375859975815 0
      vertex 47.5 -5.151375859975815 55
      vertex 3.548094719648361 -30.52702020853758 55
    endloop
  endfacet
  facet normal 0 1 0
    outer loop
      vertex 27.072801493108273 -10.201375856995583 1.8594953159514986
      vertex 27.071687578460118 -10.201375856995583 53.13320077677763
      vertex 27.072801493108273 -10.201375856995583 53.1405046840485
    endloop
  endfacet
  facet normal -0.9333456059191372 -0.3589790800470669 0
    outer loop
      vertex 27.072801493108273 -10.201375856995583 1.8594953159514986
      vertex 27.072801493108273 -10.201375856995583 53.1405046840485
      vertex 25.13049379736185 -5.151375859975815 53.140504690232405
    endloop
  endfacet
  facet normal 0 1 0
    outer loop
      vertex 47.5 -5.151375859975815 55
      vertex 25.13049379736185 -5.151375859975815 1.859495309767599
      vertex 25.13049379736185 -5.151375859975815 53.140504690232405
    endloop
  endfacet
  facet normal 0 0 1
    outer loop
      vertex 3.548094719648361 -30.52702020853758 55
      vertex 47.5 -5.151375859975815 55
      vertex 27.464199161462822 -10.481674367295104 55
    endloop
  endfacet
  facet normal 0 0 1
    outer loop
      vertex 47.5 -5.151375859975815 55
      vertex 25.414084345120493 -5.151375859975815 55
      vertex 27.464199161462822 -10.481674367295104 55
    endloop
  endfacet
  facet normal 0 1 0
    outer loop
      vertex 47.5 -5.151375859975815 55
      vertex 25.13049379736185 -5.151375859975815 53.140504690232405
      vertex 25.414084345120493 -5.151375859975815 55
    endloop
  endfacet
  facet normal 0 1 0
    outer loop
      vertex 12.92831242153988 -10.201375856995583 1.8667992232223725
      vertex 12.92831242153988 -10.201375856995583 53.13320077677763
      vertex 27.071687578460118 -10.201375856995583 53.13320077677763
    endloop
  endfacet
  facet normal 0 1 0
    outer loop
      vertex 12.927198506891727 -10.201375856995583 53.14050468404849
      vertex 12.92831242153988 -10.201375856995583 53.13320077677763
      vertex 12.92831242153988 -10.201375856995583 1.8667992232223725
    endloop
  endfacet
  facet normal 0.933345606380511 -0.3589790788474953 0
    outer loop
      vertex 14.869506195187569 -5.151375859975815 1.859495260914347
      vertex 14.869506195187569 -5.151375859975815 53.14050473908566
      vertex 12.927198506891727 -10.201375856995583 53.14050468404849
    endloop
  endfacet
  facet normal 0 1 0
    outer loop
      vertex 3.548094719648361 -5.151375859975815 0
      vertex 3.548094719648361 -5.151375859975815 55
      vertex 14.869506195187569 -5.151375859975815 53.14050473908566
    endloop
  endfacet
  facet normal 0 0 1
    outer loop
      vertex 3.548094719648361 -30.52702020853758 55
      vertex 27.464199161462822 -10.481674367295104 55
      vertex 12.53580083853718 -10.481674367295104 55
    endloop
  endfacet
  facet normal 0 0 1
    outer loop
      vertex 3.548094719648361 -30.52702020853758 55
      vertex 12.53580083853718 -10.481674367295104 55
      vertex 3.548094719648361 -5.151375859975815 55
    endloop
  endfacet
  facet normal 0 0 1
    outer loop
      vertex 3.548094719648361 -5.151375859975815 55
      vertex 12.53580083853718 -10.481674367295104 55
      vertex 14.585915654879509 -5.151375859975815 55
    endloop
  endfacet
  facet normal 0 1 0
    outer loop
      vertex 3.548094719648361 -5.151375859975815 55
      vertex 14.585915654879509 -5.151375859975815 55
      vertex 14.869506195187569 -5.151375859975815 53.14050473908566
    endloop
  endfacet
endsolid OpenSCAD_Model
